<svg xmlns="http://www.w3.org/2000/svg" viewBox="0 0 1024 1024" role="img" aria-labelledby="logoTitle logoDesc">
  <title id="logoTitle">GetLoveYVR logo</title>
  <desc id="logoDesc">A heart outline containing a mountain and suspension bridge inside an olive green circle.</desc>
  <circle cx="512" cy="512" r="468" fill="#536d3c" />
  <g fill="none" stroke="#f4f0dc" stroke-linecap="round" stroke-linejoin="round" stroke-width="22">
    <path d="M226 522C204 426 218 335 282 281C346 227 431 242 510 384C593 242 678 227 742 281C806 335 820 426 798 522C782 590 726 664 512 822C298 664 242 590 226 522" />
    <path d="M66 618C182 619 251 582 347 431L406 503L467 457L559 532" />
    <path d="M347 615C475 553 562 495 608 431" />
    <path d="M343 615H900" />
    <path d="M606 428V707" />
    <path d="M607 430H652" />
    <path d="M650 433V647" />
    <path d="M648 431C679 521 722 571 740 590" />
    <path d="M778 586L810 603" />
  </g>
</svg>
