<svg xmlns="http://www.w3.org/2000/svg" viewBox="0 0 285 285" role="img" aria-labelledby="logoTitle logoDesc">
  <title id="logoTitle">GetLoveYVR logo</title>
  <desc id="logoDesc">A heart outline containing a mountain and suspension bridge inside an olive green circle.</desc>
  <circle cx="142.5" cy="142.5" r="113" fill="#60763d" />
  <g fill="none" stroke="#efe8d8" stroke-linecap="round" stroke-linejoin="round" stroke-width="5.5">
    <path d="M67 112c0-30 20-54 49-54 16 0 28 9 37 24 9-15 21-24 37-24 29 0 49 24 49 54 0 22-9 40-28 57-11 10-30 27-58 53-28-26-47-43-58-53-19-17-28-35-28-57z" />
    <path d="M26 171c27 0 41-6 53-18 8-8 14-18 20-28" />
    <path d="M101 126l17 28 11-16 9 13" />
    <path d="M95 168c25-1 47-2 68-2 24 0 47 1 83 3" />
    <path d="M131 167c22-3 37-16 57-44" />
    <path d="M188 123v66" />
    <path d="M180 123h35" />
    <path d="M188 123c14 11 26 23 41 46" />
    <path d="M204 132v37" />
  </g>
</svg>
